<mxfile host="app.diagrams.net" modified="2024-06-17T00:21:30.096Z" agent="Mozilla/5.0 (Windows NT 10.0; Win64; x64; rv:127.0) Gecko/20100101 Firefox/127.0" etag="mdmLR-bh3ZMcRjFufF7J" version="24.5.4" type="device">
  <diagram name="Page-1" id="ih8eOheHviyzvs10yqhd">
    <mxGraphModel dx="1240" dy="2870" grid="1" gridSize="10" guides="1" tooltips="1" connect="1" arrows="1" fold="1" page="1" pageScale="1" pageWidth="1169" pageHeight="827" math="0" shadow="0">
      <root>
        <mxCell id="0" />
        <mxCell id="1" parent="0" />
        <mxCell id="lsezvJEX4bNXh8YziYVi-32" style="edgeStyle=orthogonalEdgeStyle;rounded=0;orthogonalLoop=1;jettySize=auto;html=1;exitX=1;exitY=0.25;exitDx=0;exitDy=0;entryX=0;entryY=0.5;entryDx=0;entryDy=0;endArrow=none;endFill=0;" edge="1" source="lsezvJEX4bNXh8YziYVi-35" target="lsezvJEX4bNXh8YziYVi-38" parent="1">
          <mxGeometry relative="1" as="geometry" />
        </mxCell>
        <mxCell id="lsezvJEX4bNXh8YziYVi-33" style="edgeStyle=orthogonalEdgeStyle;rounded=0;orthogonalLoop=1;jettySize=auto;html=1;exitX=0.5;exitY=0;exitDx=0;exitDy=0;endArrow=none;endFill=0;entryX=0.5;entryY=1;entryDx=0;entryDy=0;" edge="1" source="lsezvJEX4bNXh8YziYVi-35" target="lsezvJEX4bNXh8YziYVi-40" parent="1">
          <mxGeometry relative="1" as="geometry">
            <mxPoint x="124.28571428571422" y="190" as="targetPoint" />
          </mxGeometry>
        </mxCell>
        <mxCell id="lsezvJEX4bNXh8YziYVi-34" style="edgeStyle=orthogonalEdgeStyle;rounded=0;orthogonalLoop=1;jettySize=auto;html=1;exitX=1;exitY=0.75;exitDx=0;exitDy=0;entryX=0;entryY=0.5;entryDx=0;entryDy=0;endArrow=none;endFill=0;" edge="1" source="lsezvJEX4bNXh8YziYVi-35" target="lsezvJEX4bNXh8YziYVi-42" parent="1">
          <mxGeometry relative="1" as="geometry" />
        </mxCell>
        <mxCell id="lsezvJEX4bNXh8YziYVi-35" value="Usuários" style="rounded=0;whiteSpace=wrap;html=1;fontSize=22;" vertex="1" parent="1">
          <mxGeometry x="44" y="229" width="160" height="80" as="geometry" />
        </mxCell>
        <mxCell id="lsezvJEX4bNXh8YziYVi-70" style="edgeStyle=orthogonalEdgeStyle;rounded=0;orthogonalLoop=1;jettySize=auto;html=1;exitX=1;exitY=0.25;exitDx=0;exitDy=0;entryX=0;entryY=0.25;entryDx=0;entryDy=0;endArrow=none;endFill=0;" edge="1" parent="1" source="lsezvJEX4bNXh8YziYVi-36" target="lsezvJEX4bNXh8YziYVi-55">
          <mxGeometry relative="1" as="geometry" />
        </mxCell>
        <mxCell id="lsezvJEX4bNXh8YziYVi-76" style="edgeStyle=orthogonalEdgeStyle;rounded=0;orthogonalLoop=1;jettySize=auto;html=1;exitX=1;exitY=0.75;exitDx=0;exitDy=0;entryX=0.5;entryY=0;entryDx=0;entryDy=0;endArrow=none;endFill=0;" edge="1" parent="1" source="lsezvJEX4bNXh8YziYVi-36" target="lsezvJEX4bNXh8YziYVi-78">
          <mxGeometry relative="1" as="geometry" />
        </mxCell>
        <mxCell id="lsezvJEX4bNXh8YziYVi-36" value="Compra" style="rounded=0;whiteSpace=wrap;html=1;fontSize=22;" vertex="1" parent="1">
          <mxGeometry x="554" y="164" width="160" height="80" as="geometry" />
        </mxCell>
        <mxCell id="lsezvJEX4bNXh8YziYVi-37" style="edgeStyle=orthogonalEdgeStyle;rounded=0;orthogonalLoop=1;jettySize=auto;html=1;exitX=1;exitY=0.5;exitDx=0;exitDy=0;entryX=0;entryY=0.5;entryDx=0;entryDy=0;endArrow=none;endFill=0;" edge="1" source="lsezvJEX4bNXh8YziYVi-38" target="lsezvJEX4bNXh8YziYVi-36" parent="1">
          <mxGeometry relative="1" as="geometry" />
        </mxCell>
        <mxCell id="lsezvJEX4bNXh8YziYVi-38" value="realiza" style="rhombus;whiteSpace=wrap;html=1;fontSize=22;" vertex="1" parent="1">
          <mxGeometry x="284" y="139" width="130" height="130" as="geometry" />
        </mxCell>
        <mxCell id="lsezvJEX4bNXh8YziYVi-72" style="edgeStyle=orthogonalEdgeStyle;rounded=0;orthogonalLoop=1;jettySize=auto;html=1;exitX=1;exitY=0.5;exitDx=0;exitDy=0;entryX=0;entryY=0.75;entryDx=0;entryDy=0;endArrow=none;endFill=0;" edge="1" parent="1" source="lsezvJEX4bNXh8YziYVi-39" target="lsezvJEX4bNXh8YziYVi-55">
          <mxGeometry relative="1" as="geometry" />
        </mxCell>
        <mxCell id="lsezvJEX4bNXh8YziYVi-75" style="edgeStyle=orthogonalEdgeStyle;rounded=0;orthogonalLoop=1;jettySize=auto;html=1;exitX=0.75;exitY=1;exitDx=0;exitDy=0;entryX=0.5;entryY=0;entryDx=0;entryDy=0;endArrow=none;endFill=0;" edge="1" parent="1" source="lsezvJEX4bNXh8YziYVi-39" target="lsezvJEX4bNXh8YziYVi-77">
          <mxGeometry relative="1" as="geometry" />
        </mxCell>
        <mxCell id="lsezvJEX4bNXh8YziYVi-39" value="Empréstimo" style="rounded=0;whiteSpace=wrap;html=1;fontSize=22;" vertex="1" parent="1">
          <mxGeometry x="554" y="294" width="160" height="80" as="geometry" />
        </mxCell>
        <mxCell id="lsezvJEX4bNXh8YziYVi-40" value="nome" style="ellipse;whiteSpace=wrap;html=1;" vertex="1" parent="1">
          <mxGeometry x="64" y="110" width="120" height="80" as="geometry" />
        </mxCell>
        <mxCell id="lsezvJEX4bNXh8YziYVi-41" style="edgeStyle=orthogonalEdgeStyle;rounded=0;orthogonalLoop=1;jettySize=auto;html=1;exitX=1;exitY=0.5;exitDx=0;exitDy=0;entryX=0;entryY=0.5;entryDx=0;entryDy=0;endArrow=none;endFill=0;" edge="1" source="lsezvJEX4bNXh8YziYVi-42" target="lsezvJEX4bNXh8YziYVi-39" parent="1">
          <mxGeometry relative="1" as="geometry">
            <mxPoint x="524" y="333.70588235294144" as="targetPoint" />
          </mxGeometry>
        </mxCell>
        <mxCell id="lsezvJEX4bNXh8YziYVi-42" value="realiza" style="rhombus;whiteSpace=wrap;html=1;fontSize=22;" vertex="1" parent="1">
          <mxGeometry x="284" y="269" width="130" height="130" as="geometry" />
        </mxCell>
        <mxCell id="lsezvJEX4bNXh8YziYVi-58" style="edgeStyle=orthogonalEdgeStyle;rounded=0;orthogonalLoop=1;jettySize=auto;html=1;exitX=0.25;exitY=1;exitDx=0;exitDy=0;entryX=0.5;entryY=0;entryDx=0;entryDy=0;endArrow=none;endFill=0;" edge="1" parent="1" source="lsezvJEX4bNXh8YziYVi-55" target="lsezvJEX4bNXh8YziYVi-60">
          <mxGeometry relative="1" as="geometry">
            <mxPoint x="939.3846153846152" y="341" as="targetPoint" />
          </mxGeometry>
        </mxCell>
        <mxCell id="lsezvJEX4bNXh8YziYVi-59" style="edgeStyle=orthogonalEdgeStyle;rounded=0;orthogonalLoop=1;jettySize=auto;html=1;exitX=0.75;exitY=1;exitDx=0;exitDy=0;entryX=0.5;entryY=0;entryDx=0;entryDy=0;endArrow=none;endFill=0;" edge="1" parent="1" source="lsezvJEX4bNXh8YziYVi-55" target="lsezvJEX4bNXh8YziYVi-61">
          <mxGeometry relative="1" as="geometry">
            <mxPoint x="1019.3846153846152" y="341" as="targetPoint" />
          </mxGeometry>
        </mxCell>
        <mxCell id="lsezvJEX4bNXh8YziYVi-55" value="Livros" style="rounded=0;whiteSpace=wrap;html=1;fontSize=22;" vertex="1" parent="1">
          <mxGeometry x="899" y="220" width="160" height="80" as="geometry" />
        </mxCell>
        <mxCell id="lsezvJEX4bNXh8YziYVi-62" style="edgeStyle=orthogonalEdgeStyle;rounded=0;orthogonalLoop=1;jettySize=auto;html=1;exitX=0.5;exitY=1;exitDx=0;exitDy=0;entryX=0.5;entryY=0;entryDx=0;entryDy=0;endArrow=none;endFill=0;" edge="1" parent="1" source="lsezvJEX4bNXh8YziYVi-60" target="lsezvJEX4bNXh8YziYVi-65">
          <mxGeometry relative="1" as="geometry">
            <mxPoint x="903.272727272727" y="551" as="targetPoint" />
          </mxGeometry>
        </mxCell>
        <mxCell id="lsezvJEX4bNXh8YziYVi-60" value="detém" style="rhombus;whiteSpace=wrap;html=1;fontSize=22;" vertex="1" parent="1">
          <mxGeometry x="839" y="369" width="130" height="130" as="geometry" />
        </mxCell>
        <mxCell id="lsezvJEX4bNXh8YziYVi-64" style="edgeStyle=orthogonalEdgeStyle;rounded=0;orthogonalLoop=1;jettySize=auto;html=1;exitX=0.5;exitY=1;exitDx=0;exitDy=0;entryX=0.5;entryY=0;entryDx=0;entryDy=0;endArrow=none;endFill=0;" edge="1" parent="1" source="lsezvJEX4bNXh8YziYVi-61" target="lsezvJEX4bNXh8YziYVi-68">
          <mxGeometry relative="1" as="geometry">
            <mxPoint x="1068.9999999999998" y="561" as="targetPoint" />
          </mxGeometry>
        </mxCell>
        <mxCell id="lsezvJEX4bNXh8YziYVi-61" value="possui" style="rhombus;whiteSpace=wrap;html=1;fontSize=22;" vertex="1" parent="1">
          <mxGeometry x="989" y="375" width="130" height="130" as="geometry" />
        </mxCell>
        <mxCell id="lsezvJEX4bNXh8YziYVi-65" value="Bibliotecas" style="rounded=0;whiteSpace=wrap;html=1;fontSize=22;" vertex="1" parent="1">
          <mxGeometry x="834" y="561" width="140" height="80" as="geometry" />
        </mxCell>
        <mxCell id="lsezvJEX4bNXh8YziYVi-68" value="Gêneros" style="rounded=0;whiteSpace=wrap;html=1;fontSize=22;" vertex="1" parent="1">
          <mxGeometry x="984" y="561" width="140" height="80" as="geometry" />
        </mxCell>
        <mxCell id="lsezvJEX4bNXh8YziYVi-80" style="edgeStyle=orthogonalEdgeStyle;rounded=0;orthogonalLoop=1;jettySize=auto;html=1;exitX=1;exitY=1;exitDx=0;exitDy=0;endArrow=none;endFill=0;" edge="1" parent="1" source="lsezvJEX4bNXh8YziYVi-77">
          <mxGeometry relative="1" as="geometry">
            <mxPoint x="834" y="620" as="targetPoint" />
          </mxGeometry>
        </mxCell>
        <mxCell id="lsezvJEX4bNXh8YziYVi-77" value="&lt;div style=&quot;font-size: 20px;&quot; align=&quot;center&quot;&gt;é&lt;/div&gt;&lt;div style=&quot;font-size: 20px;&quot; align=&quot;center&quot;&gt;emprestado&lt;/div&gt;" style="rhombus;whiteSpace=wrap;html=1;fontSize=20;align=center;fillColor=default;verticalAlign=middle;labelPosition=center;verticalLabelPosition=middle;spacingTop=0;spacingBottom=28;" vertex="1" parent="1">
          <mxGeometry x="609" y="523" width="130" height="130" as="geometry" />
        </mxCell>
        <mxCell id="lsezvJEX4bNXh8YziYVi-81" style="edgeStyle=orthogonalEdgeStyle;rounded=0;orthogonalLoop=1;jettySize=auto;html=1;exitX=0.5;exitY=1;exitDx=0;exitDy=0;entryX=0;entryY=0.25;entryDx=0;entryDy=0;strokeColor=default;align=center;verticalAlign=middle;fontFamily=Helvetica;fontSize=11;fontColor=default;labelBackgroundColor=default;endArrow=none;endFill=0;" edge="1" parent="1" source="lsezvJEX4bNXh8YziYVi-78" target="lsezvJEX4bNXh8YziYVi-65">
          <mxGeometry relative="1" as="geometry" />
        </mxCell>
        <mxCell id="lsezvJEX4bNXh8YziYVi-78" value="&lt;div&gt;é&lt;/div&gt;&lt;div&gt;comprado&lt;/div&gt;" style="rhombus;whiteSpace=wrap;html=1;fontSize=22;align=center;fillColor=default;verticalAlign=middle;labelPosition=center;verticalLabelPosition=middle;spacingTop=0;spacingBottom=30;" vertex="1" parent="1">
          <mxGeometry x="704" y="414" width="130" height="130" as="geometry" />
        </mxCell>
        <mxCell id="lsezvJEX4bNXh8YziYVi-82" style="edgeStyle=orthogonalEdgeStyle;rounded=0;orthogonalLoop=1;jettySize=auto;html=1;exitX=1;exitY=0.25;exitDx=0;exitDy=0;entryX=0;entryY=0.5;entryDx=0;entryDy=0;endArrow=none;endFill=0;" edge="1" parent="1" source="lsezvJEX4bNXh8YziYVi-85" target="lsezvJEX4bNXh8YziYVi-90">
          <mxGeometry relative="1" as="geometry" />
        </mxCell>
        <mxCell id="lsezvJEX4bNXh8YziYVi-83" style="edgeStyle=orthogonalEdgeStyle;rounded=0;orthogonalLoop=1;jettySize=auto;html=1;exitX=0.5;exitY=0;exitDx=0;exitDy=0;endArrow=none;endFill=0;entryX=0.5;entryY=1;entryDx=0;entryDy=0;" edge="1" parent="1" source="lsezvJEX4bNXh8YziYVi-85" target="lsezvJEX4bNXh8YziYVi-94">
          <mxGeometry relative="1" as="geometry">
            <mxPoint x="124.28571428571422" y="-560" as="targetPoint" />
          </mxGeometry>
        </mxCell>
        <mxCell id="lsezvJEX4bNXh8YziYVi-84" style="edgeStyle=orthogonalEdgeStyle;rounded=0;orthogonalLoop=1;jettySize=auto;html=1;exitX=1;exitY=0.75;exitDx=0;exitDy=0;entryX=0;entryY=0.5;entryDx=0;entryDy=0;endArrow=none;endFill=0;" edge="1" parent="1" source="lsezvJEX4bNXh8YziYVi-85" target="lsezvJEX4bNXh8YziYVi-96">
          <mxGeometry relative="1" as="geometry" />
        </mxCell>
        <mxCell id="lsezvJEX4bNXh8YziYVi-85" value="Usuários" style="rounded=0;whiteSpace=wrap;html=1;fontSize=22;" vertex="1" parent="1">
          <mxGeometry x="44" y="-521" width="160" height="80" as="geometry" />
        </mxCell>
        <mxCell id="lsezvJEX4bNXh8YziYVi-86" style="edgeStyle=orthogonalEdgeStyle;rounded=0;orthogonalLoop=1;jettySize=auto;html=1;exitX=1;exitY=0.25;exitDx=0;exitDy=0;entryX=0;entryY=0.25;entryDx=0;entryDy=0;endArrow=none;endFill=0;" edge="1" parent="1" source="lsezvJEX4bNXh8YziYVi-88" target="lsezvJEX4bNXh8YziYVi-99">
          <mxGeometry relative="1" as="geometry" />
        </mxCell>
        <mxCell id="lsezvJEX4bNXh8YziYVi-88" value="Compra" style="rounded=0;whiteSpace=wrap;html=1;fontSize=22;" vertex="1" parent="1">
          <mxGeometry x="554" y="-586" width="160" height="80" as="geometry" />
        </mxCell>
        <mxCell id="lsezvJEX4bNXh8YziYVi-89" style="edgeStyle=orthogonalEdgeStyle;rounded=0;orthogonalLoop=1;jettySize=auto;html=1;exitX=1;exitY=0.5;exitDx=0;exitDy=0;entryX=0;entryY=0.5;entryDx=0;entryDy=0;endArrow=none;endFill=0;" edge="1" parent="1" source="lsezvJEX4bNXh8YziYVi-90" target="lsezvJEX4bNXh8YziYVi-88">
          <mxGeometry relative="1" as="geometry" />
        </mxCell>
        <mxCell id="lsezvJEX4bNXh8YziYVi-90" value="realiza" style="rhombus;whiteSpace=wrap;html=1;fontSize=22;" vertex="1" parent="1">
          <mxGeometry x="284" y="-611" width="130" height="130" as="geometry" />
        </mxCell>
        <mxCell id="lsezvJEX4bNXh8YziYVi-91" style="edgeStyle=orthogonalEdgeStyle;rounded=0;orthogonalLoop=1;jettySize=auto;html=1;exitX=1;exitY=0.5;exitDx=0;exitDy=0;entryX=0;entryY=0.75;entryDx=0;entryDy=0;endArrow=none;endFill=0;" edge="1" parent="1" source="lsezvJEX4bNXh8YziYVi-93" target="lsezvJEX4bNXh8YziYVi-99">
          <mxGeometry relative="1" as="geometry" />
        </mxCell>
        <mxCell id="lsezvJEX4bNXh8YziYVi-93" value="Empréstimo" style="rounded=0;whiteSpace=wrap;html=1;fontSize=22;" vertex="1" parent="1">
          <mxGeometry x="554" y="-456" width="160" height="80" as="geometry" />
        </mxCell>
        <mxCell id="lsezvJEX4bNXh8YziYVi-94" value="nome" style="ellipse;whiteSpace=wrap;html=1;" vertex="1" parent="1">
          <mxGeometry x="64" y="-640" width="120" height="80" as="geometry" />
        </mxCell>
        <mxCell id="lsezvJEX4bNXh8YziYVi-95" style="edgeStyle=orthogonalEdgeStyle;rounded=0;orthogonalLoop=1;jettySize=auto;html=1;exitX=1;exitY=0.5;exitDx=0;exitDy=0;entryX=0;entryY=0.5;entryDx=0;entryDy=0;endArrow=none;endFill=0;" edge="1" parent="1" source="lsezvJEX4bNXh8YziYVi-96" target="lsezvJEX4bNXh8YziYVi-93">
          <mxGeometry relative="1" as="geometry">
            <mxPoint x="524" y="-416.29411764705856" as="targetPoint" />
          </mxGeometry>
        </mxCell>
        <mxCell id="lsezvJEX4bNXh8YziYVi-96" value="realiza" style="rhombus;whiteSpace=wrap;html=1;fontSize=22;" vertex="1" parent="1">
          <mxGeometry x="284" y="-481" width="130" height="130" as="geometry" />
        </mxCell>
        <mxCell id="lsezvJEX4bNXh8YziYVi-97" style="edgeStyle=orthogonalEdgeStyle;rounded=0;orthogonalLoop=1;jettySize=auto;html=1;exitX=0.25;exitY=1;exitDx=0;exitDy=0;entryX=0.5;entryY=0;entryDx=0;entryDy=0;endArrow=none;endFill=0;" edge="1" parent="1" source="lsezvJEX4bNXh8YziYVi-99" target="lsezvJEX4bNXh8YziYVi-101">
          <mxGeometry relative="1" as="geometry">
            <mxPoint x="939.3846153846152" y="-409" as="targetPoint" />
          </mxGeometry>
        </mxCell>
        <mxCell id="lsezvJEX4bNXh8YziYVi-98" style="edgeStyle=orthogonalEdgeStyle;rounded=0;orthogonalLoop=1;jettySize=auto;html=1;exitX=0.75;exitY=1;exitDx=0;exitDy=0;entryX=0.5;entryY=0;entryDx=0;entryDy=0;endArrow=none;endFill=0;" edge="1" parent="1" source="lsezvJEX4bNXh8YziYVi-99" target="lsezvJEX4bNXh8YziYVi-103">
          <mxGeometry relative="1" as="geometry">
            <mxPoint x="1019.3846153846152" y="-409" as="targetPoint" />
          </mxGeometry>
        </mxCell>
        <mxCell id="lsezvJEX4bNXh8YziYVi-99" value="Livros" style="rounded=0;whiteSpace=wrap;html=1;fontSize=22;" vertex="1" parent="1">
          <mxGeometry x="899" y="-530" width="160" height="80" as="geometry" />
        </mxCell>
        <mxCell id="lsezvJEX4bNXh8YziYVi-100" style="edgeStyle=orthogonalEdgeStyle;rounded=0;orthogonalLoop=1;jettySize=auto;html=1;exitX=0.5;exitY=1;exitDx=0;exitDy=0;entryX=0.5;entryY=0;entryDx=0;entryDy=0;endArrow=none;endFill=0;" edge="1" parent="1" source="lsezvJEX4bNXh8YziYVi-101" target="lsezvJEX4bNXh8YziYVi-104">
          <mxGeometry relative="1" as="geometry">
            <mxPoint x="903.272727272727" y="-199" as="targetPoint" />
          </mxGeometry>
        </mxCell>
        <mxCell id="lsezvJEX4bNXh8YziYVi-101" value="detém" style="rhombus;whiteSpace=wrap;html=1;fontSize=22;" vertex="1" parent="1">
          <mxGeometry x="839" y="-381" width="130" height="130" as="geometry" />
        </mxCell>
        <mxCell id="lsezvJEX4bNXh8YziYVi-102" style="edgeStyle=orthogonalEdgeStyle;rounded=0;orthogonalLoop=1;jettySize=auto;html=1;exitX=0.5;exitY=1;exitDx=0;exitDy=0;entryX=0.5;entryY=0;entryDx=0;entryDy=0;endArrow=none;endFill=0;" edge="1" parent="1" source="lsezvJEX4bNXh8YziYVi-103" target="lsezvJEX4bNXh8YziYVi-105">
          <mxGeometry relative="1" as="geometry">
            <mxPoint x="1068.9999999999998" y="-189" as="targetPoint" />
          </mxGeometry>
        </mxCell>
        <mxCell id="lsezvJEX4bNXh8YziYVi-103" value="possui" style="rhombus;whiteSpace=wrap;html=1;fontSize=22;" vertex="1" parent="1">
          <mxGeometry x="989" y="-375" width="130" height="130" as="geometry" />
        </mxCell>
        <mxCell id="lsezvJEX4bNXh8YziYVi-104" value="Bibliotecas" style="rounded=0;whiteSpace=wrap;html=1;fontSize=22;" vertex="1" parent="1">
          <mxGeometry x="834" y="-189" width="140" height="80" as="geometry" />
        </mxCell>
        <mxCell id="lsezvJEX4bNXh8YziYVi-105" value="Gêneros" style="rounded=0;whiteSpace=wrap;html=1;fontSize=22;" vertex="1" parent="1">
          <mxGeometry x="984" y="-189" width="140" height="80" as="geometry" />
        </mxCell>
      </root>
    </mxGraphModel>
  </diagram>
</mxfile>
